<svg width="120" height="121" viewBox="0 0 120 121" fill="none" xmlns="http://www.w3.org/2000/svg">
<path d="M90.6274 52.9329L74.263 69.101L60.0032 83.192L45.7434 69.101L29.3675 52.9329L13.9385 66.6745C13.9385 66.6745 13.9385 66.6745 13.9527 66.6745L14.6857 67.4157H14.6999L45.3442 97.7001L59.9975 83.2314L74.6508 97.7001L105.295 67.4269L106.042 66.6998H106.057L90.6274 52.9329Z" fill="#5957D5"/>
<path d="M14.6689 67.4447C12.7426 65.5411 11.2145 63.2812 10.172 60.7941C9.12944 58.307 8.59285 55.6413 8.59285 52.9493C8.59285 50.2572 9.12944 47.5915 10.172 45.1044C11.2145 42.6173 12.7426 40.3574 14.6689 38.4538L29.9954 23.3088L44.6644 37.8042L14.6689 67.4447Z" fill="url(#paint0_linear_543_7076)"/>
<path d="M75.3213 37.7953L89.9903 23.2999L105.331 38.4589C107.257 40.3625 108.785 42.6224 109.828 45.1095C110.87 47.5966 111.407 50.2623 111.407 52.9544C111.407 55.6464 110.87 58.3121 109.828 60.7992C108.785 63.2863 107.257 65.5462 105.331 67.4498L75.3213 37.7953Z" fill="url(#paint1_linear_543_7076)"/>
<defs>
<linearGradient id="paint0_linear_543_7076" x1="7.33445" y1="60.197" x2="36.9728" y2="30.2037" gradientUnits="userSpaceOnUse">
<stop stop-color="#5957D5" stop-opacity="0.5"/>
<stop offset="1" stop-color="#5957D5" stop-opacity="0.7"/>
</linearGradient>
<linearGradient id="paint1_linear_543_7076" x1="82.6558" y1="30.5476" x2="112.308" y2="60.555" gradientUnits="userSpaceOnUse">
<stop stop-color="#5957D5" stop-opacity="0.7"/>
<stop offset="1" stop-color="#5957D5" stop-opacity="0.5"/>
</linearGradient>
</defs>
</svg>
